<?xml version="1.0" encoding="utf-8"?>
<!-- Generator: Adobe Illustrator 28.1.0, SVG Export Plug-In . SVG Version: 6.00 Build 0)  -->
<svg version="1.1" id="Ńëîé_1" xmlns="http://www.w3.org/2000/svg" xmlns:xlink="http://www.w3.org/1999/xlink" x="0px" y="0px"
	 viewBox="0 0 366.94 23.34" style="enable-background:new 0 0 366.94 23.34;" xml:space="preserve">
<style type="text/css">
	.st0{fill:none;stroke:#FFFFFF;stroke-width:1.4388;stroke-miterlimit:10;}
	.st1{fill:#FFFFFF;}
	.st2{fill:none;stroke:#FFFFFF;stroke-width:2.7232;stroke-miterlimit:10;}
	.st3{fill:none;stroke:#FFFFFF;stroke-width:0.6184;stroke-miterlimit:10;}
</style>
<g>
	<polyline class="st0" points="357.19,10.48 347.06,20.62 121.79,20.62 106.28,5.11 2.27,5.11 	"/>
	<path class="st1" d="M121.31,23.34h1.32c0.83,0,1.49-0.67,1.49-1.49v-2.99c0-0.83-0.67-1.49-1.49-1.49h-1.32
		c-0.83,0-1.49,0.67-1.49,1.49v2.99C119.82,22.67,120.49,23.34,121.31,23.34z"/>
	<path class="st1" d="M4.54,5.11c0-1.25-1.02-2.27-2.27-2.27C1.02,2.84,0,3.86,0,5.11c0,1.25,1.02,2.27,2.27,2.27
		C3.52,7.38,4.54,6.37,4.54,5.11z"/>
	<path class="st1" d="M50.83,5.11c0-1.25-1.02-2.27-2.27-2.27c-1.25,0-2.27,1.02-2.27,2.27s1.02,2.27,2.27,2.27
		C49.82,7.38,50.83,6.37,50.83,5.11z"/>
	<line class="st2" x1="121.98" y1="20.35" x2="312.26" y2="20.35"/>
	<path class="st3" d="M366.63,4.23c0-2.16-1.75-3.92-3.92-3.92c-2.16,0-3.92,1.75-3.92,3.92c0,2.16,1.75,3.92,3.92,3.92
		C364.88,8.14,366.63,6.39,366.63,4.23z"/>
	<path class="st1" d="M364.16,4.23c0-0.8-0.65-1.44-1.44-1.44c-0.8,0-1.44,0.65-1.44,1.44c0,0.8,0.65,1.44,1.44,1.44
		C363.51,5.67,364.16,5.02,364.16,4.23z"/>
</g>
</svg>
