<?xml version="1.0" encoding="UTF-8"?>
<svg xmlns="http://www.w3.org/2000/svg" version="1.1" viewBox="0 0 287 185.1">
  <defs>
    <style>
      .cls-1 {
        opacity: .3;
      }

      .cls-1, .cls-2, .cls-3 {
        isolation: isolate;
      }

      .cls-1, .cls-2, .cls-3, .cls-4 {
        fill: #dadada;
      }

      .cls-2 {
        opacity: .2;
      }

      .cls-3 {
        opacity: .6;
      }
    </style>
  </defs>
  <!-- Generator: Adobe Illustrator 28.7.1, SVG Export Plug-In . SVG Version: 1.2.0 Build 142)  -->
  <g>
    <g id="Vrstva_1">
      <g id="_Ńëîé_1">
        <g>
          <g>
            <path class="cls-4" d="M9.9,14.8c-2.7,0-4.9-2.2-4.9-4.9s2.2-4.9,4.9-4.9,4.9,2.2,4.9,4.9-2.2,4.9-4.9,4.9Z"/>
            <path class="cls-4" d="M0,9.9C0,4.4,4.4,0,9.9,0s9.9,4.4,9.9,9.9-4.4,9.9-9.9,9.9S0,15.3,0,9.9ZM.4,9.9c0,5.2,4.3,9.5,9.5,9.5s9.5-4.3,9.5-9.5S15.1.4,9.9.4c-5.2,0-9.5,4.3-9.5,9.5Z"/>
          </g>
          <g>
            <g>
              <path class="cls-4" d="M197.1,179.3c1.5.1,3.1.1,4.6.2v-4.6c-1.4,1.5-3,3-4.6,4.4h0Z"/>
              <g>
                <path class="cls-4" d="M189,26.3c1-.2,2-.3,3-.4l1.5-.2c.5,0,1,0,1.5-.1l1.5,1.2c-1.1,0-2.1.1-3.2.3l-3.2.4c-.5-.4-1-.7-1.5-1,0,0,.3-.2.3-.2Z"/>
                <polygon class="cls-4" points="200.8 23.6 201.7 23.6 201.7 26.3 200.8 26.3 200.8 23.6"/>
              </g>
              <path class="cls-4" d="M200.1,173.9l.2.2c-.9.9-1.9,1.9-2.9,2.8h0s-2.9-.2-2.9-.2l-2.9-.4v-.2s2.9.4,2.9.4l2.9.2c1-.9,2-1.9,2.9-2.8h0Z"/>
              <path class="cls-4" d="M198.9,172.5v.2c-.5.7-1.2,1.3-1.9,1.9l-2.1-.2c-.7,0-1.4-.2-2.1-.3-.7-.1-1.4-.2-2.1-.3l-2.1-.4v-.2s2.1.4,2.1.4c.7.1,1.4.2,2.1.3.7,0,1.4.2,2.1.3l2.1.2c.7-.6,1.3-1.2,1.9-1.9h0Z"/>
            </g>
            <g>
              <g>
                <path class="cls-4" d="M282,84.6h.4c1.1,4.3,1.8,8.8,2.1,13.2.2,2.2.2,4.5.3,6.7v3.4c0,1.1-.2,2.2-.3,3.4-.4,4.5-1.1,8.9-2.2,13.3-1.1,4.4-2.6,8.6-4.4,12.8h-.3c1.8-4.3,3.2-8.5,4.4-12.9,1.1-4.3,1.8-8.8,2.2-13.3,0-1.1.2-2.2.2-3.3v-3.4c0-2.2,0-4.5-.2-6.7-.3-4.5-1-8.9-2.1-13.3h0Z"/>
                <path class="cls-4" d="M284.1,111.3v-1.3c.8-.7,1.4-1.3,2.1-2,.2-5,0-10.1-.7-15.1l.9-1.4-.5-2.7c-.2-.9-.3-1.8-.5-2.7l.4-.7.4,1.7.3,1.7c.2,1.1.4,2.3.6,3.4l-.9,1.4c.6,5,.8,10.1.6,15.2-.9.9-1.7,1.7-2.6,2.5h0Z"/>
                <polygon class="cls-4" points="285 106.7 285.9 105.8 285.8 107.3 285 108.3 285 106.7"/>
                <path class="cls-4" d="M285.1,104.2l.8-1c0,.5,0,1.1,0,1.6l-.9,1c0-.5,0-1.1,0-1.6Z"/>
                <polygon class="cls-4" points="285 101.6 285.8 100.7 285.9 102.2 285 103.2 285 101.6"/>
                <path class="cls-4" d="M284.9,99.1l.8-1v1.6c-.1.3-.4.7-.7,1,0-.5,0-1.1,0-1.6Z"/>
                <path class="cls-4" d="M284.8,98.2v-1.6c.1-.3.4-.7.7-1,0,.5,0,1.1.1,1.6l-.8,1h0Z"/>
                <polygon class="cls-4" points="284.4 94.1 285.1 93 285.3 94.6 284.6 95.7 284.4 94.1"/>
                <path class="cls-4" d="M281.2,127.8c-.3,1.2-.7,2.5-1.1,3.7-.4,1.2-.8,2.4-1.3,3.6-.5,1.3-1.1,2.6-1.7,3.9l-1,.4c1.7-3.6,3.1-7.4,4.3-11.2l.7-.4h0Z"/>
                <path class="cls-4" d="M281.3,82.3v-.2c.8.5,1.6.9,2.3,1.4.3,1.4.7,2.8,1,4.2.2,1.4.5,2.8.7,4.3h-.2c-.2-1.4-.5-2.8-.7-4.2-.3-1.4-.6-2.8-.9-4.2-.7-.5-1.4-.9-2.1-1.4h0Z"/>
                <path class="cls-4" d="M281.5,84.8c2.9,11.9,3.1,24.5.6,36.5h-.2c2.5-12,2.3-24.6-.6-36.5,0,0,.2,0,.2,0Z"/>
                <path class="cls-4" d="M285.4,109.7l-1,.6-.2,2.3c0,.7-.2,1.5-.3,2.2l-.3,2.2-.4,2.2,1.2-.9c.5-2.9.8-5.8,1-8.7h0Z"/>
                <path class="cls-4" d="M280.8,82.4c0-.4,0-.7.4-.8.3,0,.7.1.8.5.1.4,0,.7-.4.8-.3,0-.7-.1-.8-.5Z"/>
              </g>
              <path class="cls-4" d="M205.1,179.5v-2.8c16-.7,31.9-6.9,44-17.6h2.3c0-.1,2.2-.3,2.2-.3-6.5,6.2-14.1,11.3-22.4,14.8-8.3,3.5-17.2,5.5-26.2,5.9h0Z"/>
              <path class="cls-4" d="M272.6,129.4l1.2.4c-1.4,3.8-3,7.4-4.9,11-1.9,3.5-4.1,6.9-6.5,10.1l-2.1.5c5.3-6.5,9.4-14.1,12.3-22h0Z"/>
              <path class="cls-4" d="M213.4,30l.5-.3c1.5-1,3-2.1,4.6-3,1.6-.9,3.2-1.9,4.9-2.7,9.9,2.6,19.3,7.2,27.6,13.3,8.3,6.1,15.4,13.7,20.9,22.3-.2,1-.3,2-.5,2.9s-.4,1.9-.6,2.9c4,7,6.9,14.7,8.5,22.6.7.5,1.3.9,1.9,1.4.7,3.7,1.1,7.5,1.3,11.3,0,1.9.1,3.8,0,5.7,0,1.9-.2,3.8-.3,5.7l-2.7-.3c0,.3,0,.6,0,.9l2.7.3-.3,2.4-.2,1.2-.2,1.2-2.7-.4-.2.9,2.7.5c-.2,1.6-.6,3.1-1,4.7l-2.6-.6-.2.9,2.6.7c-1.3,5.2-3.2,10.3-5.6,15.1-2.4.9-4.7,1.6-7,2.2h-.3c.4-.7.8-1.4,1.1-2.2,1.7-3.1,3.1-6.4,4.3-9.7,1.2-3.3,2.1-6.7,2.9-10.2,1.4-6.9,1.9-14.1,1.3-21.1l.4-.4c.7-.8,1.4-1.7,2.1-2.6-.9-7.7-2.9-15.2-6-22.3s-7.2-13.7-12.2-19.5c-10-11.7-23.6-20.4-38.5-24.5-.6.3-1.1.6-1.7.9l-1.7,1c-.9-.2-1.9-.5-2.8-.6l-2.8-.5h0Z"/>
              <path class="cls-4" d="M206.4,29.4c-1.5-.1-3.1-.1-4.6-.2v4.6c1.4-1.5,3-3,4.6-4.4h0Z"/>
              <g>
                <path class="cls-4" d="M258.7,39.5c.2,1.1.3,2.1.4,3.2-3.3-3.1-6.8-5.9-10.6-8.4-.3-1-.6-2.1-.9-3.1,1,.6,2,1.2,2.9,1.9l2.8,2,2.7,2.1c.9.7,1.8,1.5,2.6,2.3h0Z"/>
                <path class="cls-4" d="M261,44.5l-1.2-1.2c-.1-1.1-.2-2.2-.4-3.2.5.4.9.8,1.3,1.2.1,1.1.2,2.2.3,3.2Z"/>
                <path class="cls-4" d="M262.5,43.1c0,1.1.1,2.2.2,3.3l-1.2-1.3c0-1.1-.2-2.1-.3-3.2l1.2,1.2h0Z"/>
              </g>
              <g>
                <path class="cls-4" d="M269.2,81.9c-3-9.2-8-17.7-14.4-24.9l.6-.5c6.5,7.3,11.5,15.9,14.6,25.2,0,0-.7.2-.7.2Z"/>
                <path class="cls-4" d="M274.2,98.6c-.7.8-1.3,1.5-2,2.2-.7.7-1.4,1.4-2.1,2.1.2,8.9-1.4,17.9-4.6,26.2h-.3c3.2-8.4,4.8-17.3,4.6-26.3.7-.7,1.4-1.4,2.1-2.1.7-.7,1.3-1.5,2-2.2,0-1.7-.4-3.4-.6-5.1l-.4-2.5c0-.4-.1-.8-.2-1.3l-.3-1.3-1.3-.8c-.2-.8-.4-1.7-.7-2.5-.2-.8-.4-1.7-.7-2.5h.3c.3.7.5,1.6.7,2.4.2.8.5,1.7.6,2.5l1.3.8c.2.8.4,1.7.5,2.6l.5,2.6c.2,1.8.5,3.5.6,5.3h0Z"/>
                <path class="cls-4" d="M267.7,123.8c1.6-5.4,2.5-11,2.7-16.7h-1c-.2,5.6-1.1,11.1-2.7,16.4l.9.3Z"/>
                <path class="cls-4" d="M254.8,57c2.4,2.6,4.5,5.5,6.5,8.5,2,3,3.7,6.1,5.1,9.3-.8-.3-1.5-.5-2.3-.8-.7-1.3-1.3-2.6-2-3.9l-1.1-1.9-1.2-1.8-.6-.9-.6-.9-1.3-1.8-1.4-1.7-.7-.9-.7-.8c0-.8.2-1.6.2-2.4h0Z"/>
                <path class="cls-4" d="M261.9,148.9c-.2-1.8-.5-3.5-.8-5.2h.3c.3,1.5.5,2.9.7,4.5,6-8.2,10.3-17.7,12.4-27.7-.8-1.4-1.8-2.8-2.8-4.1.8-4.5,1.1-9,1-13.5h.3c0,4.5-.2,9-1,13.5.9,1.3,1.9,2.7,2.8,4.1-2.2,10.3-6.7,20.1-12.9,28.5h0Z"/>
                <path class="cls-4" d="M261.9,147.5v1c6.3-8.4,10.6-18,12.8-28.1l-.5-.7c-2.1,10-6.3,19.5-12.3,27.8h0Z"/>
                <g>
                  <path class="cls-4" d="M272.9,121.9l-.2.2c-.6-.9-1.1-1.8-1.7-2.6l.3-.2c.6.8,1.1,1.7,1.7,2.6h0Z"/>
                  <path class="cls-4" d="M271.9,124.9c-.5-.9-1-1.8-1.6-2.7h.3c.5.7,1,1.6,1.5,2.5,0,0-.2.1-.2.1Z"/>
                  <path class="cls-4" d="M271.2,127.6h-.3c-.5-.8-.9-1.7-1.4-2.6h.3c.5.8,1,1.7,1.5,2.6h0Z"/>
                  <path class="cls-4" d="M270.2,130.4h-.3c0,.1-.6-1.3-.6-1.3l-.7-1.4h.3c.5.8.9,1.7,1.4,2.7h0Z"/>
                  <path class="cls-4" d="M269.1,133.2h-.3c-.4-.8-.8-1.8-1.2-2.7h.3c.4.8.9,1.8,1.2,2.7h0Z"/>
                  <path class="cls-4" d="M267.6,136c-.4-1-.7-1.9-1.1-2.9h.3c.4.8.7,1.8,1.1,2.8h-.3Z"/>
                  <path class="cls-4" d="M266.2,138.7c-.3-1-.6-2-1-2.9h.3c.3.9.7,1.8,1,2.8h-.3Z"/>
                  <path class="cls-4" d="M264.8,141.3c-.3-1-.6-2-.9-3h.3c.3.9.6,1.9.9,2.9h-.3Z"/>
                  <path class="cls-4" d="M263.5,143.8h-.3c-.2-1-.5-1.9-.7-2.9h.3c.3.9.5,1.9.7,2.9h0Z"/>
                </g>
                <path class="cls-4" d="M265.7,128.6c-.5,1.3-1,2.6-1.5,3.8-.3.6-.5,1.3-.8,1.9l-.9,1.9-.5-1.4c.2-.5.5-.9.7-1.4l.6-1.4.6-1.4.6-1.5,1.3-.5h0Z"/>
                <path class="cls-4" d="M248.5,159.1l-.2-.2c.7-.6,1.4-1.2,2-1.8l2-1.9c1.3-1.3,2.5-2.6,3.7-4-.1-1.3-.2-2.5-.4-3.7l1.3-1.7c.4-.6.8-1.2,1.3-1.8.9-1.1,1.6-2.4,2.4-3.6h.2c-.8,1.3-1.5,2.6-2.4,3.7l-1.3,1.7-1.3,1.7c.2,1.2.3,2.5.4,3.7-1.2,1.4-2.5,2.7-3.8,4.1l-2,1.9c-.7.6-1.4,1.2-2.1,1.8h0Z"/>
                <path class="cls-4" d="M249.1,159.8c-.5.4-1.2.4-1.6-.1s-.4-1.2,0-1.6,1.2-.3,1.6.1c.4.5.4,1.2,0,1.6Z"/>
              </g>
              <g>
                <path class="cls-4" d="M232.7,176.9l.3.8c-3.5,1.4-7.1,2.7-10.7,3.7-3.7.9-7.4,1.7-11.1,2.1v-.9c3.6-.4,7.3-1.2,10.9-2.1,3.6-.9,7.1-2.2,10.6-3.6h0Z"/>
                <path class="cls-4" d="M274.3,135.5l.8.3c-1.5,3.5-3.3,6.8-5.2,10.1-2,3.2-4.2,6.3-6.6,9.2l-.7-.6c2.4-2.9,4.6-5.9,6.5-9.1,1.9-3.2,3.7-6.5,5.2-10h0Z"/>
                <path class="cls-4" d="M260.6,157.7c-6.1,6.7-13.4,12.4-21.4,16.7v-.2c7.9-4.3,15.1-9.9,21.2-16.6,0,0,.2.1.2.1Z"/>
                <path class="cls-4" d="M239.7,174c.2.3,0,.7-.3.9-.4.2-.8,0-1-.3-.2-.3,0-.7.3-.9.3-.2.8,0,.9.3h0Z"/>
                <path class="cls-4" d="M261,157.1c.3.3.3.7,0,1-.3.3-.7.3-1,0s-.3-.7,0-1c.3-.3.7-.3,1,0h0Z"/>
                <path class="cls-4" d="M263.3,155.1s.2-.5.4-1c.2-.5.4-1,.4-1.1,0,0,.5-.6,1.2-1.4.6-.9,1.5-2,2.4-3.1.8-1.2,1.6-2.3,2.2-3.2.6-.9,1-1.5,1-1.5l.4,1.6c-.5.9-1,1.6-1.5,2.5-.5.8-1,1.6-1.6,2.4l-1.7,2.4-1.8,2.3-1.3.2h0Z"/>
                <path class="cls-4" d="M275.1,135.8l-1.3,1.1-.5-1.4s0-.1.1-.3c0-.2.2-.5.4-.8.3-.7.6-1.6,1-2.5.4-.9.6-1.9.9-2.6.2-.7.4-1.2.4-1.2,0,0,.4.8.4.8-.3.9-.6,1.8-.9,2.7l-1,2.6c.2.5.4,1,.5,1.4h0c0,0,0,0,0,0Z"/>
                <path class="cls-4" d="M214.8,182.2l-.3.2c-1,.2-2,.3-3,.4l-1.5.2c-.5,0-1,0-1.5.1l-1.5-1.2c1.1,0,2.1-.1,3.2-.3l3.2-.4c.5.4,1,.7,1.5,1h0Z"/>
                <polygon class="cls-4" points="202.7 185 201.7 185.1 201.7 182.4 202.7 182.4 202.7 185"/>
              </g>
              <path class="cls-4" d="M257.4,154.8l1.6-1.8.8-.9.8-.9,1.5-1.9,1.4-1.9c-.9.2-1.9.3-2.8.5-1.9,2.5-3.8,4.9-6,7.1.9,0,1.8,0,2.7,0h0Z"/>
              <path class="cls-4" d="M266.2,143c.8-1.4,1.7-2.7,2.4-4.2.4-.7.8-1.4,1.1-2.1l1-2.2c-.9.3-1.8.7-2.6,1-.3.7-.7,1.4-1,2.1-.4.7-.7,1.4-1.1,2.1-.8,1.3-1.5,2.7-2.4,4,.9-.2,1.8-.4,2.6-.6h0Z"/>
              <path class="cls-4" d="M272.5,129.7c.5-1.5,1.1-3,1.5-4.6.2-.8.5-1.5.7-2.3l.6-2.3c-.8.5-1.6,1-2.4,1.5-.2.7-.4,1.5-.6,2.2-.2.7-.4,1.5-.6,2.2-.5,1.5-.9,2.9-1.6,4.4.8-.4,1.7-.7,2.4-1.1h0Z"/>
              <path class="cls-4" d="M276.6,110.7l.2-2.4v-2.4c-.6.7-1.3,1.3-1.9,1.9,0,.8-.1,1.5-.2,2.3,0,.8,0,1.5-.2,2.3-.2,1.5-.3,3.1-.7,4.6.7-.5,1.5-1,2.2-1.6.2-1.6.5-3.2.6-4.8Z"/>
              <path class="cls-4" d="M252,47h-1.5c-7.6-6.4-16.5-11.3-26-14.4-1.3.6-2.6,1.4-3.8,2.1l-1-.3-1-.2-2.1-.5c-1.4-.3-2.8-.5-4.2-.8.3-.3.7-.5,1-.7l2.8.5,2.8.6c1.3-.8,2.6-1.5,3.9-2.2,5.3,1.5,10.4,3.6,15.2,6.3,4.8,2.7,9.3,5.8,13.5,9.4,0,0,.2.2.2.2Z"/>
              <path class="cls-4" d="M224.7,33.7l2.2.8c-.9.4-1.8.9-2.6,1.3s-1.7.9-2.5,1.4c-.9-.3-1.8-.5-2.7-.8l-2.8-.6c-.2-.4-.5-.8-.8-1.2.9.2,1.8.4,2.7.6l1.3.3,1.3.4c1.2-.7,2.5-1.5,3.8-2.1h0Z"/>
              <path class="cls-4" d="M225.1,36.1c2.7.9,5.3,2.1,7.9,3.3,2.6,1.3,5.1,2.7,7.5,4.3.8-.2,1.7-.4,2.6-.6-4.9-3.3-10.2-6-15.7-8.1-.8.3-1.5.7-2.3,1.1h0Z"/>
              <path class="cls-4" d="M203.3,34.8l-.2-.2c.9-.9,1.9-1.9,2.9-2.8h0s2.9.2,2.9.2l2.9.4v.2s-2.9-.4-2.9-.4l-2.9-.2c-1,.9-2,1.9-2.9,2.8h0Z"/>
              <path class="cls-4" d="M204.6,36.2v-.2c.5-.7,1.2-1.3,1.9-1.9l2.1.2c.7,0,1.4.2,2.1.3.7,0,1.4.2,2.1.3l2.1.4v.2s-2.1-.4-2.1-.4c-.7-.1-1.4-.2-2.1-.3-.7,0-1.4-.2-2.1-.3l-2.1-.2c-.7.6-1.3,1.2-1.9,1.8h0Z"/>
              <path class="cls-4" d="M251.8,47.9l.2-.2c.5.5,1.1.9,1.6,1.4l1.5,1.5c.7,0,1.3,0,2,0v.2c-.7,0-1.4,0-2.1,0l-1.6-1.5c-.5-.5-1-1-1.6-1.5h0Z"/>
              <path class="cls-4" d="M242.4,44.1v-.2c.1,0,3,2,3,2l2.7,2.2c.8,0,1.6-.1,2.4-.2v.2c-.8,0-1.6.1-2.4.2l-2.8-2.2-2.9-2h0Z"/>
            </g>
          </g>
          <polygon class="cls-4" points="19.8 19.2 20.1 18.9 131.2 129.3 222.1 129.3 229.6 121.8 249.4 121.8 255.5 115.8 255.7 116 249.5 122.2 229.7 122.2 222.3 129.7 131.1 129.7 19.8 19.2"/>
          <path class="cls-2" d="M244.8,125.2c.2,0,3.1,0,3.3,0,.2-.2-12.7,12.7-12.7,12.7h-34.2s-3.2-3.2-3.2-3.2h26s9.2-9.4,9.4-9.4h11.5Z"/>
          <path class="cls-4" d="M146.1,47h35.2c3.7-3.6,13-12.9,13.3-13.3h.2c0,.1-.2,0-.2,0l.3.2c-.3.4-12.1,12.1-13.4,13.4h0s-35,0-35,0v5.2h-.4v-5.6Z"/>
          <g>
            <rect class="cls-4" x="147.6" y="48.8" width="9.8" height="3.3"/>
            <g>
              <rect class="cls-3" x="159.8" y="48.8" width="9.8" height="3.3"/>
              <rect class="cls-1" x="172.1" y="48.8" width="9.8" height="3.3"/>
            </g>
          </g>
        </g>
      </g>
    </g>
  </g>
</svg>