<?xml version="1.0" encoding="utf-8"?>
<!-- Generator: Adobe Illustrator 28.1.0, SVG Export Plug-In . SVG Version: 6.00 Build 0)  -->
<svg version="1.1" id="Ńëîé_1" xmlns="http://www.w3.org/2000/svg" xmlns:xlink="http://www.w3.org/1999/xlink" x="0px" y="0px"
	 viewBox="0 0 205.16 59.09" style="enable-background:new 0 0 205.16 59.09;" xml:space="preserve">
<style type="text/css">
	.st0{fill:#FFFFFF;}
	.st1{fill:none;stroke:#FFFFFF;stroke-width:0.7384;stroke-miterlimit:10;}
</style>
<g>
	<g>
		<polygon class="st0" points="198.64,52.99 194.81,52.99 191.37,49.54 196.05,49.54 199.5,53 		"/>
		<polygon class="st0" points="191.25,52.99 187.41,52.99 183.97,49.54 188.66,49.54 192.11,53 		"/>
		<polygon class="st0" points="183.85,52.99 180.02,52.99 176.58,49.54 181.26,49.54 184.71,53 		"/>
		<polygon class="st0" points="176.46,52.99 172.63,52.99 169.19,49.54 173.87,49.54 177.32,53 		"/>
		<polygon class="st0" points="169.06,52.99 165.23,52.99 161.79,49.54 166.47,49.54 169.93,53 		"/>
		<polygon class="st0" points="161.67,52.99 157.84,52.99 154.4,49.54 159.08,49.54 162.53,53 		"/>
		<polygon class="st0" points="154.28,52.99 150.45,52.99 147,49.54 151.69,49.54 155.14,53 		"/>
		<polygon class="st0" points="146.88,52.99 143.05,52.99 139.61,49.54 144.29,49.54 147.74,53 		"/>
		<polygon class="st0" points="139.49,52.99 135.66,52.99 132.22,49.54 136.9,49.54 140.35,53 		"/>
		<polygon class="st0" points="132.09,52.99 128.26,52.99 124.82,49.54 129.5,49.54 132.96,53 		"/>
		<polygon class="st0" points="124.7,52.99 120.87,52.99 117.43,49.54 122.11,49.54 125.56,53 		"/>
		<g>
			<polygon class="st0" points="38.37,51.5 114.73,51.5 114.73,51.04 38.82,51.04 25.73,37.96 25.63,38.48 			"/>
		</g>
		<path class="st0" d="M115.49,51.27c0,0.42-0.34,0.76-0.76,0.76c-0.42,0-0.76-0.34-0.76-0.76c0-0.42,0.34-0.76,0.76-0.76
			C115.15,50.51,115.49,50.85,115.49,51.27z"/>
		<path class="st0" d="M101.1,58.15c0,0.42-0.34,0.76-0.76,0.76c-0.42,0-0.76-0.34-0.76-0.76c0-0.42,0.34-0.76,0.76-0.76
			C100.75,57.39,101.1,57.73,101.1,58.15z"/>
		<polygon class="st0" points="149.13,54.44 146.63,56.93 130.57,56.93 128.41,59.09 109.44,59.09 107.15,56.79 103.56,56.79 
			101.1,54.33 		"/>
		<g>
			<polygon class="st0" points="92.22,58.37 100.13,58.37 100.13,57.92 92.41,57.92 88.81,54.33 88.49,54.65 			"/>
		</g>
		<polygon class="st0" points="150.04,57.05 154.91,57.05 157.49,54.48 151.97,54.48 149.38,57.06 		"/>
		<polygon class="st0" points="158.4,57.05 160.19,57.05 162.77,54.48 160.32,54.48 157.74,57.06 		"/>
	</g>
	<g>
		<polygon class="st0" points="205.16,52.86 50.11,52.86 8.9,11.13 9.57,10.47 50.5,51.92 205.16,51.92 		"/>
	</g>
	<path class="st0" d="M0,4.66C0,2.09,2.09,0,4.66,0c2.57,0,4.66,2.09,4.66,4.66c0,2.57-2.09,4.66-4.66,4.66C2.09,9.31,0,7.23,0,4.66
		z"/>
	<polyline class="st1" points="41.56,34.71 53.38,46.53 109.49,46.53 112.32,43.7 197.36,43.7 199.85,46.18 	"/>
</g>
</svg>
