<?xml version="1.0" encoding="UTF-8"?>
<svg xmlns="http://www.w3.org/2000/svg" version="1.1" viewBox="0 0 286.95 185.05">
  <defs>
    <style>
      .cls-1 {
        opacity: .31;
      }

      .cls-1, .cls-2, .cls-3, .cls-4 {
        fill: #dadada;
      }

      .cls-2 {
        opacity: .6;
      }

      .cls-4 {
        opacity: .22;
      }
    </style>
  </defs>
  <!-- Generator: Adobe Illustrator 28.7.1, SVG Export Plug-In . SVG Version: 1.2.0 Build 142)  -->
  <g>
    <g id="_Ńëîé_1" data-name="Ńëîé_1">
      <g>
        <g>
          <path class="cls-3" d="M272.16,9.89c0-2.7,2.19-4.9,4.9-4.9s4.9,2.19,4.9,4.9-2.19,4.9-4.9,4.9-4.9-2.19-4.9-4.9Z"/>
          <path class="cls-3" d="M277.06,19.77c-5.45,0-9.89-4.44-9.89-9.89s4.44-9.89,9.89-9.89,9.89,4.44,9.89,9.89-4.44,9.89-9.89,9.89ZM277.06.37c-5.25,0-9.51,4.27-9.51,9.51s4.27,9.51,9.51,9.51,9.51-4.27,9.51-9.51-4.27-9.51-9.51-9.51Z"/>
        </g>
        <g>
          <g>
            <path class="cls-3" d="M89.86,179.27c-1.63-1.4-3.18-2.94-4.63-4.41v4.56c1.54-.06,3.09-.04,4.63-.16Z"/>
            <g>
              <path class="cls-3" d="M98.26,26.5c-.51.34-1,.65-1.5,1.02l-3.15-.4c-1.05-.13-2.11-.17-3.16-.26l1.53-1.24c.5.04,1,.07,1.5.12l1.49.19c.99.14,1.99.22,2.98.41l.31.16Z"/>
              <polygon class="cls-3" points="86.16 26.29 85.23 26.26 85.23 23.62 86.2 23.64 86.16 26.29"/>
            </g>
            <path class="cls-3" d="M86.83,173.89c.93.93,1.91,1.93,2.91,2.8l2.88-.22,2.87-.36.03.22-2.92.37-2.94.22-.03-.03c-1.02-.89-2-1.89-2.95-2.83l.15-.16Z"/>
            <path class="cls-3" d="M88.11,172.49c.63.65,1.28,1.25,1.94,1.85l2.06-.16c.69-.06,1.37-.17,2.05-.25.68-.09,1.37-.16,2.05-.27l2.03-.36.04.22-2.06.37c-.69.12-1.39.18-2.08.28-.69.08-1.38.2-2.08.25l-2.09.16c-.69-.62-1.35-1.25-2.01-1.92l.14-.16Z"/>
          </g>
          <g>
            <g>
              <path class="cls-3" d="M4.97,84.64c-1.1,4.35-1.76,8.8-2.11,13.27-.21,2.23-.22,4.47-.26,6.71l.08,3.36c.03,1.12.15,2.23.22,3.35.39,4.46,1.09,8.91,2.19,13.26,1.11,4.35,2.57,8.6,4.35,12.72l-.34.15c-1.79-4.13-3.25-8.41-4.37-12.78-1.11-4.37-1.81-8.83-2.2-13.32-.07-1.12-.2-2.24-.22-3.37l-.08-3.37c.04-2.25.05-4.5.27-6.74.35-4.48,1.02-8.96,2.12-13.33l.36.09Z"/>
              <path class="cls-3" d="M2.89,111.26c-.86-.82-1.73-1.67-2.59-2.54-.24-5.08-.04-10.18.6-15.23l-.9-1.36c.12-1.14.37-2.27.56-3.41l.31-1.7.38-1.68.37.7c-.22.89-.38,1.8-.54,2.7l-.47,2.71.92,1.39c-.68,5.02-.95,10.08-.71,15.13.62.68,1.3,1.33,1.97,1.98l.1,1.3Z"/>
              <polygon class="cls-3" points="2 108.27 1.12 107.34 1.08 105.76 1.95 106.7 2 108.27"/>
              <path class="cls-3" d="M1.94,105.75l-.88-.96c-.02-.53,0-1.05.02-1.58l.82.96c0,.53.03,1.05.04,1.58Z"/>
              <polygon class="cls-3" points="1.93 103.22 1.1 102.24 1.14 100.66 1.96 101.64 1.93 103.22"/>
              <path class="cls-3" d="M1.99,100.7c-.27-.33-.56-.67-.81-1.01l.12-1.58.77,1.01c-.04.52-.08,1.05-.08,1.58Z"/>
              <path class="cls-3" d="M2.15,98.17l-.78-1.03c.04-.53.07-1.05.13-1.58.24.35.51.69.76,1.03l-.11,1.57Z"/>
              <polygon class="cls-3" points="2.35 95.65 1.63 94.6 1.82 93.03 2.54 94.09 2.35 95.65"/>
              <path class="cls-3" d="M5.8,127.83l.67.42c1.2,3.83,2.6,7.61,4.33,11.23l-1-.43c-.58-1.28-1.17-2.55-1.67-3.87-.44-1.21-.9-2.41-1.26-3.65-.37-1.23-.79-2.45-1.09-3.7Z"/>
              <path class="cls-3" d="M5.67,82.3c-.68.44-1.4.89-2.06,1.36-.31,1.39-.66,2.77-.94,4.17-.24,1.4-.53,2.8-.73,4.21l-.24-.04c.2-1.43.49-2.85.74-4.28.29-1.42.64-2.83.96-4.24.7-.49,1.44-.96,2.16-1.42l.11.23Z"/>
              <path class="cls-3" d="M5.72,84.82c-2.89,11.9-3.12,24.41-.6,36.4l-.24.05c-2.52-12.03-2.29-24.57.6-36.51l.24.06Z"/>
              <path class="cls-3" d="M1.53,109.69c.19,2.91.51,5.81,1.01,8.69l1.17.93-.4-2.23-.29-2.25c-.09-.75-.2-1.5-.27-2.25l-.17-2.26-1.04-.64Z"/>
              <path class="cls-3" d="M5.41,82.9c-.32-.08-.5-.44-.39-.8.1-.36.44-.57.76-.48.32.09.49.45.39.8s-.44.57-.76.48Z"/>
            </g>
            <path class="cls-3" d="M81.84,179.52c-8.98-.42-17.88-2.42-26.15-5.94-8.27-3.52-15.87-8.58-22.38-14.78l2.24.22,2.25.12c12.17,10.66,28.02,16.92,44.16,17.61l-.12,2.76Z"/>
            <path class="cls-3" d="M14.35,129.36c2.83,7.93,6.93,15.43,12.25,21.98l-2.08-.54c-2.42-3.18-4.61-6.54-6.54-10.05-1.89-3.53-3.51-7.19-4.86-10.96l1.22-.43Z"/>
            <path class="cls-3" d="M73.55,30.01l-2.84.51c-.95.15-1.88.42-2.82.62l-1.67-1c-.56-.32-1.13-.62-1.7-.93-14.89,4.07-28.46,12.74-38.48,24.47-5.03,5.85-9.16,12.46-12.25,19.53-3.09,7.07-5.1,14.61-5.97,22.27.65.89,1.37,1.76,2.07,2.61l.36.43c-.58,7.06-.07,14.2,1.32,21.14.75,3.46,1.69,6.88,2.89,10.21,1.24,3.31,2.62,6.58,4.31,9.7.31.79.71,1.53,1.07,2.3l-.28-.07c-2.37-.59-4.65-1.36-7.03-2.21-2.35-4.83-4.21-9.9-5.55-15.1l2.63-.68-.21-.91-2.64.64c-.36-1.55-.74-3.09-.98-4.65l2.68-.49-.16-.92-2.68.45-.21-1.2-.16-1.2-.31-2.41,2.7-.29c-.04-.31-.08-.62-.1-.93l-2.71.26c-.14-1.89-.32-3.79-.33-5.69-.09-1.9-.01-3.8.04-5.7.21-3.79.56-7.59,1.3-11.32.64-.48,1.26-.96,1.92-1.41,1.68-7.91,4.54-15.58,8.54-22.62-.23-.95-.44-1.91-.65-2.89-.21-.98-.35-1.94-.52-2.93,5.52-8.64,12.64-16.25,20.91-22.32,8.25-6.09,17.66-10.63,27.58-13.27,1.68.82,3.34,1.78,4.91,2.69,1.58.92,3.12,1.98,4.58,2.98l.46.32Z"/>
            <path class="cls-3" d="M80.6,29.4c1.63,1.4,3.18,2.94,4.63,4.41v-4.56c-1.54.06-3.09.04-4.63.16Z"/>
            <g>
              <path class="cls-3" d="M28.23,39.55c.88-.75,1.73-1.54,2.65-2.25l2.73-2.14,2.83-2.01c.94-.67,1.94-1.27,2.9-1.9-.32,1.05-.62,2.08-.9,3.11-3.74,2.53-7.29,5.34-10.59,8.41.09-1.08.23-2.15.39-3.22Z"/>
              <path class="cls-3" d="M26.29,41.3c.43-.4.84-.82,1.3-1.2-.16,1.06-.24,2.17-.35,3.23l-1.25,1.19c.08-1.06.18-2.14.3-3.22Z"/>
              <path class="cls-3" d="M24.44,43.07l1.24-1.19c-.1,1.09-.21,2.14-.27,3.22l-1.19,1.25c.06-1.08.11-2.19.21-3.29Z"/>
            </g>
            <g>
              <path class="cls-3" d="M17,81.63c3.07-9.25,8.07-17.86,14.57-25.15l.58.52c-6.43,7.21-11.37,15.72-14.41,24.87l-.74-.24Z"/>
              <path class="cls-3" d="M12.71,98.6c.09-1.76.37-3.5.58-5.25l.46-2.6c.14-.87.34-1.73.54-2.58l1.3-.79c.17-.84.42-1.66.65-2.49.25-.82.44-1.66.73-2.46l.28.09c-.3.82-.49,1.67-.74,2.51-.24.84-.48,1.68-.66,2.53l-1.3.79-.29,1.25c-.09.42-.15.84-.23,1.26l-.45,2.53c-.2,1.7-.48,3.4-.57,5.11.67.77,1.34,1.51,2.02,2.24.71.73,1.42,1.43,2.13,2.12-.19,8.93,1.36,17.87,4.59,26.16l-.27.11c-3.24-8.3-4.8-17.23-4.62-26.16-.71-.69-1.42-1.39-2.13-2.12-.69-.73-1.35-1.47-2.02-2.24Z"/>
              <path class="cls-3" d="M20.22,123.48c-1.55-5.35-2.52-10.88-2.69-16.47l-.97.04c.18,5.67,1.16,11.28,2.73,16.7l.93-.27Z"/>
              <path class="cls-3" d="M32.14,57c.07.82.15,1.63.23,2.42l-.72.83-.68.86-1.36,1.72-1.27,1.79-.64.89-.59.92-1.18,1.84-1.09,1.9c-.76,1.25-1.37,2.58-2.05,3.87-.77.23-1.51.5-2.28.76,1.48-3.23,3.17-6.38,5.14-9.34,1.96-2.96,4.09-5.84,6.48-8.48Z"/>
              <path class="cls-3" d="M25.03,148.86c-6.25-8.46-10.71-18.24-12.95-28.52.84-1.39,1.85-2.76,2.78-4.05-.75-4.44-1.07-8.96-.97-13.48h.29c-.09,4.54.23,9.08.99,13.54-.94,1.29-1.93,2.66-2.78,4.05,2.18,9.96,6.46,19.45,12.45,27.7.23-1.55.42-3.01.75-4.52l.28.05c-.36,1.72-.6,3.44-.84,5.24Z"/>
              <path class="cls-3" d="M25.06,147.5c-5.96-8.29-10.18-17.81-12.29-27.79l-.53.66c2.21,10.12,6.57,19.75,12.7,28.11l.13-.97Z"/>
              <g>
                <path class="cls-3" d="M14.08,121.9c.55-.89,1.11-1.76,1.67-2.6l.25.15c-.56.84-1.12,1.71-1.67,2.6l-.24-.15Z"/>
                <path class="cls-3" d="M14.85,124.78c.51-.91,1.03-1.8,1.55-2.66l.25.14c-.52.87-1.04,1.75-1.55,2.66l-.25-.14Z"/>
                <path class="cls-3" d="M15.74,127.62c.47-.93.91-1.82,1.45-2.73l.25.13c-.52.9-.96,1.79-1.44,2.72l-.26-.13Z"/>
                <path class="cls-3" d="M16.74,130.43c.41-.94.87-1.87,1.35-2.79l.26.12-.7,1.38-.64,1.4-.27-.12Z"/>
                <path class="cls-3" d="M17.85,133.2c.38-.96.82-1.92,1.24-2.84l.26.11c-.42.93-.87,1.89-1.23,2.84l-.27-.1Z"/>
                <path class="cls-3" d="M19.08,135.92c.37-.98.74-1.95,1.12-2.89l.27.1c-.38.94-.76,1.91-1.12,2.89l-.27-.1Z"/>
                <path class="cls-3" d="M20.44,138.59c.32-1,.65-1.97.99-2.93l.27.08c-.34.96-.67,1.93-.99,2.93l-.27-.08Z"/>
                <path class="cls-3" d="M21.91,141.21c.27-1.01.56-1.99.85-2.96l.28.07c-.29.97-.58,1.95-.85,2.96l-.28-.07Z"/>
                <path class="cls-3" d="M23.47,143.77c.24-1.02.45-2,.74-3l.27.07c-.27.99-.49,1.97-.73,2.99l-.28-.06Z"/>
              </g>
              <path class="cls-3" d="M21.23,128.58l1.25.48.57,1.46.65,1.43.64,1.43c.22.47.47.93.71,1.4l-.5,1.37-.92-1.85c-.31-.62-.56-1.26-.84-1.89-.58-1.25-1.05-2.55-1.55-3.83Z"/>
              <path class="cls-3" d="M38.51,159.06c-.69-.61-1.41-1.19-2.07-1.83l-2-1.91c-1.28-1.33-2.57-2.65-3.75-4.06.1-1.25.24-2.49.43-3.73l-1.33-1.69-1.25-1.75c-.86-1.15-1.58-2.39-2.37-3.58l.25-.15c.79,1.21,1.53,2.46,2.39,3.61.42.59.83,1.18,1.26,1.76l1.34,1.7c-.2,1.24-.32,2.47-.43,3.72,1.16,1.4,2.45,2.69,3.7,4l1.97,1.88c.65.63,1.37,1.2,2.04,1.8l-.19.22Z"/>
              <path class="cls-3" d="M37.77,158.22c.42-.47,1.13-.54,1.59-.14.46.4.5,1.11.1,1.6-.4.49-1.11.55-1.59.14-.47-.41-.52-1.13-.1-1.6Z"/>
            </g>
            <g>
              <path class="cls-3" d="M54.24,176.94c3.46,1.43,6.98,2.7,10.61,3.65,3.62.92,7.29,1.71,11.02,2.1l-.1.86c-3.76-.4-7.47-1.19-11.14-2.12-3.66-.96-7.23-2.25-10.72-3.69l.34-.8Z"/>
              <path class="cls-3" d="M12.71,135.51c1.47,3.44,3.23,6.75,5.15,9.96,1.96,3.19,4.16,6.22,6.51,9.13l-.67.55c-2.38-2.94-4.6-6.01-6.59-9.23-1.94-3.25-3.72-6.59-5.21-10.07l.8-.34Z"/>
              <path class="cls-3" d="M26.54,157.59c6.11,6.7,13.35,12.35,21.33,16.65l-.1.19c-8-4.31-15.26-9.98-21.39-16.69l.16-.15Z"/>
              <path class="cls-3" d="M47.29,174.05c.17-.32.6-.43.94-.26.35.18.49.59.32.91-.17.33-.59.44-.95.26-.35-.18-.5-.59-.32-.92Z"/>
              <path class="cls-3" d="M25.99,157.12c.27-.24.7-.2.96.09.27.29.27.71,0,.96-.27.25-.71.22-.98-.07-.26-.3-.25-.74.03-.99Z"/>
              <path class="cls-3" d="M23.71,155.15l-1.34-.2-1.79-2.28-1.68-2.36c-.57-.78-1.08-1.6-1.6-2.41-.51-.82-1.06-1.61-1.53-2.46l.36-1.6s.38.6.95,1.5c.59.89,1.42,2.04,2.23,3.21.87,1.13,1.74,2.26,2.39,3.12.69.83,1.16,1.39,1.18,1.43.03.08.23.59.43,1.07.2.49.39.96.39.96Z"/>
              <path class="cls-3" d="M11.91,135.85l.02-.06c.16-.48.35-.96.53-1.44l-1.04-2.65c-.33-.89-.62-1.79-.93-2.69,0,0,.37-.89.39-.84,0,.01.16.49.4,1.19.25.7.52,1.65.9,2.55.36.91.72,1.83.99,2.51.13.34.27.62.35.81.09.2.14.31.14.31l-.48,1.38-1.28-1.09Z"/>
              <path class="cls-3" d="M72.2,182.17c.51-.34,1-.65,1.5-1.02l3.15.4c1.05.13,2.11.17,3.16.26l-1.53,1.24c-.5-.04-1-.07-1.5-.12l-1.49-.19c-.99-.14-2-.22-2.98-.41l-.31-.16Z"/>
              <polygon class="cls-3" points="84.3 182.38 85.23 182.4 85.23 185.05 84.26 185.03 84.3 182.38"/>
            </g>
            <path class="cls-3" d="M29.57,154.83c.9.04,1.79.07,2.67.08-2.16-2.21-4.1-4.61-5.97-7.07-.91-.14-1.83-.3-2.77-.47l1.41,1.94,1.51,1.87.75.94.8.9,1.59,1.8Z"/>
            <path class="cls-3" d="M20.79,143.02c.85.23,1.74.42,2.6.6-.86-1.28-1.59-2.64-2.37-3.97-.39-.67-.71-1.37-1.07-2.05-.34-.69-.73-1.36-1.03-2.07-.87-.31-1.74-.65-2.63-.99l1.01,2.18c.35.72.74,1.42,1.11,2.13.71,1.43,1.58,2.79,2.38,4.17Z"/>
            <path class="cls-3" d="M14.48,129.73c.78.4,1.63.75,2.43,1.1-.6-1.42-1.04-2.9-1.55-4.36-.25-.73-.43-1.48-.65-2.22-.2-.74-.45-1.48-.6-2.23-.79-.48-1.58-.98-2.38-1.49l.57,2.34c.2.78.45,1.54.67,2.31.42,1.55,1,3.04,1.52,4.56Z"/>
            <path class="cls-3" d="M10.9,115.46c.7.54,1.45,1.05,2.17,1.56-.31-1.51-.46-3.05-.66-4.58-.12-.76-.13-1.54-.21-2.3-.05-.77-.13-1.54-.16-2.31-.68-.62-1.35-1.27-2.03-1.93l.09,2.4.21,2.39c.1,1.6.39,3.18.59,4.77Z"/>
            <path class="cls-3" d="M35.2,46.82c4.15-3.61,8.68-6.78,13.5-9.43,4.82-2.64,9.94-4.73,15.22-6.27,1.36.74,2.65,1.43,3.94,2.25l2.8-.64,2.83-.51c.34.24.67.47,1,.74-1.39.23-2.77.47-4.15.75l-2.05.47-1.03.24-1.01.29c-1.22-.7-2.5-1.44-3.79-2.08-9.52,3.02-18.41,7.98-26,14.46l-1.48-.09.22-.18Z"/>
            <path class="cls-3" d="M62.29,33.76c1.31.63,2.61,1.4,3.85,2.12l1.32-.38,1.34-.31c.89-.19,1.78-.44,2.68-.59-.26.4-.52.8-.77,1.22l-2.78.64c-.92.24-1.83.52-2.75.77-.82-.49-1.65-.93-2.49-1.37-.84-.44-1.71-.87-2.59-1.29l2.18-.82Z"/>
            <path class="cls-3" d="M61.81,36.08c-.75-.37-1.52-.77-2.29-1.11-5.53,2.07-10.81,4.79-15.71,8.08.87.17,1.74.37,2.59.56,2.39-1.59,4.92-2.94,7.47-4.25,2.59-1.22,5.22-2.38,7.94-3.29Z"/>
            <path class="cls-3" d="M83.63,34.78c-.93-.93-1.91-1.93-2.91-2.8l-2.88.22-2.87.36-.03-.22,2.92-.37,2.94-.22.03.03c1.02.89,2,1.89,2.95,2.83l-.15.16Z"/>
            <path class="cls-3" d="M82.35,36.18c-.63-.65-1.28-1.25-1.94-1.85l-2.06.16c-.69.06-1.37.17-2.05.25-.68.09-1.37.16-2.05.27l-2.03.36-.04-.22,2.06-.37c.69-.12,1.39-.18,2.08-.28.69-.08,1.38-.2,2.08-.25l2.09-.16c.69.62,1.35,1.25,2.01,1.92l-.14.16Z"/>
            <path class="cls-3" d="M35.14,47.85c-.56.46-1.08.96-1.6,1.47l-1.57,1.5c-.71,0-1.4.03-2.11.06v-.23c.68-.02,1.34-.06,2.02-.05l1.54-1.47c.51-.49,1.02-.98,1.57-1.44l.15.17Z"/>
            <path class="cls-3" d="M44.54,44.13l-2.88,2.05-2.77,2.19c-.81-.07-1.62-.14-2.45-.2l.02-.22c.8.05,1.58.12,2.36.19l2.75-2.17,2.85-2.03.13.19Z"/>
          </g>
        </g>
        <polygon class="cls-3" points="155.86 129.69 64.68 129.69 57.21 122.22 37.44 122.22 31.23 116.01 31.49 115.75 37.59 121.85 57.37 121.85 64.83 129.31 155.71 129.31 266.86 18.92 267.12 19.18 155.86 129.69"/>
        <path class="cls-4" d="M42.18,125.18h11.44c.19,0,9.42,9.42,9.42,9.42h25.96l-3.19,3.19h-34.25s-12.9-12.9-12.71-12.71c.19.19,3.13.1,3.32.1Z"/>
        <path class="cls-3" d="M140.86,52.64h-.37v-5.22h-35.02l-.05-.05c-1.34-1.33-13.14-13.02-13.39-13.4l.31-.21-.16.1.15-.11c.28.38,9.64,9.67,13.29,13.29h35.24v5.6Z"/>
        <g>
          <rect class="cls-3" x="129.56" y="48.85" width="9.84" height="3.33"/>
          <g>
            <rect class="cls-2" x="117.3" y="48.85" width="9.84" height="3.33"/>
            <rect class="cls-1" x="105.05" y="48.85" width="9.84" height="3.33"/>
          </g>
        </g>
      </g>
    </g>
  </g>
</svg>