<?xml version="1.0" encoding="UTF-8"?>
<svg xmlns="http://www.w3.org/2000/svg" version="1.1" viewBox="0 0 287 185.1">
  <defs>
    <style>
      .cls-1 {
        opacity: .3;
      }

      .cls-1, .cls-2, .cls-3 {
        isolation: isolate;
      }

      .cls-1, .cls-2, .cls-3, .cls-4 {
        fill: #dadada;
      }

      .cls-2 {
        opacity: .2;
      }

      .cls-3 {
        opacity: .6;
      }
    </style>
  </defs>
  <!-- Generator: Adobe Illustrator 28.7.1, SVG Export Plug-In . SVG Version: 1.2.0 Build 142)  -->
  <g>
    <g id="Vrstva_1">
      <g id="_Ńëîé_1">
        <g>
          <g>
            <path class="cls-4" d="M277.1,170.3c2.7,0,4.9,2.2,4.9,4.9s-2.2,4.9-4.9,4.9-4.9-2.2-4.9-4.9,2.2-4.9,4.9-4.9Z"/>
            <path class="cls-4" d="M287,175.2c0,5.5-4.4,9.9-9.9,9.9-5.5,0-9.9-4.4-9.9-9.9s4.4-9.9,9.9-9.9c5.5,0,9.9,4.4,9.9,9.9ZM286.6,175.2c0-5.2-4.3-9.5-9.5-9.5-5.2,0-9.5,4.3-9.5,9.5s4.3,9.5,9.5,9.5c5.2,0,9.5-4.3,9.5-9.5Z"/>
          </g>
          <g>
            <g>
              <path class="cls-4" d="M89.9,5.8c-1.5-.1-3.1-.1-4.6-.2v4.6c1.4-1.5,3-3,4.6-4.4h0Z"/>
              <g>
                <path class="cls-4" d="M97.9,158.7c-1,.2-2,.3-3,.4l-1.5.2c-.5,0-1,0-1.5.1l-1.5-1.2c1.1,0,2.1-.1,3.2-.3l3.2-.4c.5.4,1,.7,1.5,1,0,0-.3.2-.3.2Z"/>
                <polygon class="cls-4" points="86.2 161.4 85.2 161.4 85.2 158.8 86.2 158.8 86.2 161.4"/>
              </g>
              <path class="cls-4" d="M86.8,11.1l-.2-.2c.9-.9,1.9-1.9,2.9-2.8h0s2.9.2,2.9.2l2.9.4v.2s-2.9-.4-2.9-.4l-2.9-.2c-1,.9-2,1.9-2.9,2.8h0Z"/>
              <path class="cls-4" d="M88.1,12.5v-.2c.5-.7,1.2-1.3,1.9-1.9l2.1.2c.7,0,1.4.2,2.1.3.7.1,1.4.2,2.1.3l2.1.4v.2s-2.1-.4-2.1-.4c-.7-.1-1.4-.2-2.1-.3-.7,0-1.4-.2-2.1-.3l-2.1-.2c-.7.6-1.3,1.2-1.9,1.9h0Z"/>
            </g>
            <g>
              <g>
                <path class="cls-4" d="M5,100.4h-.4c-1.1-4.3-1.8-8.8-2.1-13.2-.2-2.2-.2-4.5-.3-6.7v-3.4c0-1.1.2-2.2.3-3.4.4-4.5,1.1-8.9,2.2-13.3,1.1-4.4,2.6-8.6,4.4-12.8h.3c-1.8,4.3-3.2,8.5-4.4,12.9-1.1,4.3-1.8,8.8-2.2,13.3,0,1.1-.2,2.2-.2,3.3v3.4c0,2.2,0,4.5.2,6.7.3,4.5,1,8.9,2.1,13.3h0Z"/>
                <path class="cls-4" d="M2.9,73.8v1.3c-.8.7-1.4,1.3-2.1,2-.2,5,0,10.1.7,15.1l-.9,1.4.5,2.7c.2.9.3,1.8.5,2.7l-.4.7-.4-1.7-.3-1.7C.4,95.2.1,94,0,92.9l.9-1.4c-.6-5-.8-10.1-.6-15.2.9-.9,1.7-1.7,2.6-2.5h0Z"/>
                <polygon class="cls-4" points="2 78.3 1.1 79.3 1.1 77.7 2 76.8 2 78.3"/>
                <path class="cls-4" d="M1.9,80.9l-.8,1c0-.5,0-1.1,0-1.6l.9-1c0,.5,0,1.1,0,1.6Z"/>
                <polygon class="cls-4" points="2 83.4 1.1 84.4 1.1 82.8 1.9 81.8 2 83.4"/>
                <path class="cls-4" d="M2.1,85.9l-.8,1v-1.6c.1-.3.4-.7.7-1,0,.5,0,1.1,0,1.6Z"/>
                <path class="cls-4" d="M2.2,86.9v1.6c-.1.3-.4.7-.7,1,0-.5,0-1.1-.1-1.6l.8-1h0Z"/>
                <polygon class="cls-4" points="2.5 91 1.8 92 1.6 90.4 2.3 89.4 2.5 91"/>
                <path class="cls-4" d="M5.8,57.2c.3-1.2.7-2.5,1.1-3.7.4-1.2.8-2.4,1.3-3.6.5-1.3,1.1-2.6,1.7-3.9l1-.4c-1.7,3.6-3.1,7.4-4.3,11.2l-.7.4h0Z"/>
                <path class="cls-4" d="M5.7,102.7v.2c-.8-.5-1.6-.9-2.3-1.4-.3-1.4-.7-2.8-1-4.2-.2-1.4-.5-2.8-.7-4.3h.2c.2,1.4.5,2.8.7,4.2.3,1.4.6,2.8.9,4.2.7.5,1.4.9,2.1,1.4h0Z"/>
                <path class="cls-4" d="M5.5,100.3c-2.9-11.9-3.1-24.5-.6-36.5h.2c-2.5,12-2.3,24.6.6,36.5,0,0-.2,0-.2,0Z"/>
                <path class="cls-4" d="M1.5,75.4l1-.6.2-2.3c0-.7.2-1.5.3-2.2l.3-2.2.4-2.2-1.2.9c-.5,2.9-.8,5.8-1,8.7h0Z"/>
                <path class="cls-4" d="M6.2,102.6c0,.4,0,.7-.4.8-.3,0-.7-.1-.8-.5-.1-.4,0-.7.4-.8.3,0,.7.1.8.5Z"/>
              </g>
              <path class="cls-4" d="M81.8,5.5v2.8c-16,.7-31.9,6.9-44,17.6h-2.3c0,.1-2.2.3-2.2.3,6.5-6.2,14.1-11.3,22.4-14.8,8.3-3.5,17.2-5.5,26.2-5.9h0Z"/>
              <path class="cls-4" d="M14.3,55.7l-1.2-.4c1.4-3.8,3-7.4,4.9-11,1.9-3.5,4.1-6.9,6.5-10.1l2.1-.5c-5.3,6.5-9.4,14.1-12.3,22h0Z"/>
              <path class="cls-4" d="M73.6,155l-.5.3c-1.5,1-3,2.1-4.6,3-1.6.9-3.2,1.9-4.9,2.7-9.9-2.6-19.3-7.2-27.6-13.3-8.3-6.1-15.4-13.7-20.9-22.3.2-1,.3-2,.5-2.9s.4-1.9.6-2.9c-4-7-6.9-14.7-8.5-22.6-.7-.5-1.3-.9-1.9-1.4-.7-3.7-1.1-7.5-1.3-11.3,0-1.9-.1-3.8,0-5.7,0-1.9.2-3.8.3-5.7l2.7.3c0-.3,0-.6,0-.9l-2.7-.3.3-2.4.2-1.2.2-1.2,2.7.4.2-.9-2.7-.5c.2-1.6.6-3.1,1-4.7l2.6.6.2-.9-2.6-.7c1.3-5.2,3.2-10.3,5.6-15.1,2.4-.9,4.7-1.6,7-2.2h.3c-.4.7-.8,1.4-1.1,2.2-1.7,3.1-3.1,6.4-4.3,9.7-1.2,3.3-2.1,6.7-2.9,10.2-1.4,6.9-1.9,14.1-1.3,21.1l-.4.4c-.7.8-1.4,1.7-2.1,2.6.9,7.7,2.9,15.2,6,22.3,3.1,7.1,7.2,13.7,12.2,19.5,10,11.7,23.6,20.4,38.5,24.5.6-.3,1.1-.6,1.7-.9l1.7-1c.9.2,1.9.5,2.8.6l2.8.5h0Z"/>
              <path class="cls-4" d="M80.6,155.6c1.5.1,3.1.1,4.6.2v-4.6c-1.4,1.5-3,3-4.6,4.4h0Z"/>
              <g>
                <path class="cls-4" d="M28.2,145.5c-.2-1.1-.3-2.1-.4-3.2,3.3,3.1,6.8,5.9,10.6,8.4.3,1,.6,2.1.9,3.1-1-.6-2-1.2-2.9-1.9l-2.8-2-2.7-2.1c-.9-.7-1.8-1.5-2.6-2.3h0Z"/>
                <path class="cls-4" d="M26,140.5l1.2,1.2c.1,1.1.2,2.2.4,3.2-.5-.4-.9-.8-1.3-1.2-.1-1.1-.2-2.2-.3-3.2Z"/>
                <path class="cls-4" d="M24.4,142c0-1.1-.1-2.2-.2-3.3l1.2,1.3c0,1.1.2,2.1.3,3.2l-1.2-1.2h0Z"/>
              </g>
              <g>
                <path class="cls-4" d="M17.7,103.2c3,9.2,8,17.7,14.4,24.9l-.6.5c-6.5-7.3-11.5-15.9-14.6-25.2,0,0,.7-.2.7-.2Z"/>
                <path class="cls-4" d="M12.7,86.4c.7-.8,1.3-1.5,2-2.2.7-.7,1.4-1.4,2.1-2.1-.2-8.9,1.4-17.9,4.6-26.2h.3c-3.2,8.4-4.8,17.3-4.6,26.3-.7.7-1.4,1.4-2.1,2.1-.7.7-1.3,1.5-2,2.2,0,1.7.4,3.4.6,5.1l.4,2.5c0,.4.1.8.2,1.3l.3,1.3,1.3.8c.2.8.4,1.7.7,2.5.2.8.4,1.7.7,2.5h-.3c-.3-.7-.5-1.6-.7-2.4-.2-.8-.5-1.7-.6-2.5l-1.3-.8c-.2-.8-.4-1.7-.5-2.6l-.5-2.6c-.2-1.8-.5-3.5-.6-5.3h0Z"/>
                <path class="cls-4" d="M19.3,61.3c-1.6,5.4-2.5,11-2.7,16.7h1c.2-5.6,1.1-11.1,2.7-16.4l-.9-.3Z"/>
                <path class="cls-4" d="M32.1,128.1c-2.4-2.6-4.5-5.5-6.5-8.5-2-3-3.7-6.1-5.1-9.3.8.3,1.5.5,2.3.8.7,1.3,1.3,2.6,2,3.9l1.1,1.9,1.2,1.8.6.9.6.9,1.3,1.8,1.4,1.7.7.9.7.8c0,.8-.2,1.6-.2,2.4h0Z"/>
                <path class="cls-4" d="M25,36.2c.2,1.8.5,3.5.8,5.2h-.3c-.3-1.5-.5-2.9-.7-4.5-6,8.2-10.3,17.7-12.4,27.7.8,1.4,1.8,2.8,2.8,4.1-.8,4.5-1.1,9-1,13.5h-.3c0-4.5.2-9,1-13.5-.9-1.3-1.9-2.7-2.8-4.1,2.2-10.3,6.7-20.1,12.9-28.5h0Z"/>
                <path class="cls-4" d="M25.1,37.5v-1c-6.3,8.4-10.6,18-12.8,28.1l.5.7c2.1-10,6.3-19.5,12.3-27.8h0Z"/>
                <g>
                  <path class="cls-4" d="M14.1,63.1l.2-.2c.6.9,1.1,1.8,1.7,2.6l-.3.2c-.6-.8-1.1-1.7-1.7-2.6h0Z"/>
                  <path class="cls-4" d="M15.1,60.1c.5.9,1,1.8,1.6,2.7h-.3c-.5-.7-1-1.6-1.5-2.5,0,0,.2-.1.2-.1Z"/>
                  <path class="cls-4" d="M15.7,57.4h.3c.5.8.9,1.7,1.4,2.6h-.3c-.5-.8-1-1.7-1.5-2.6h0Z"/>
                  <path class="cls-4" d="M16.7,54.6h.3c0-.1.6,1.3.6,1.3l.7,1.4h-.3c-.5-.8-.9-1.7-1.4-2.7h0Z"/>
                  <path class="cls-4" d="M17.9,51.8h.3c.4.8.8,1.8,1.2,2.7h-.3c-.4-.8-.9-1.8-1.2-2.7h0Z"/>
                  <path class="cls-4" d="M19.4,49c.4,1,.7,1.9,1.1,2.9h-.3c-.4-.8-.7-1.8-1.1-2.8h.3Z"/>
                  <path class="cls-4" d="M20.7,46.4c.3,1,.6,2,1,2.9h-.3c-.3-.9-.7-1.8-1-2.8h.3Z"/>
                  <path class="cls-4" d="M22.2,43.8c.3,1,.6,2,.9,3h-.3c-.3-.9-.6-1.9-.9-2.9h.3Z"/>
                  <path class="cls-4" d="M23.5,41.3h.3c.2,1,.5,1.9.7,2.9h-.3c-.3-.9-.5-1.9-.7-2.9h0Z"/>
                </g>
                <path class="cls-4" d="M21.2,56.5c.5-1.3,1-2.6,1.5-3.8.3-.6.5-1.3.8-1.9l.9-1.9.5,1.4c-.2.5-.5.9-.7,1.4l-.6,1.4-.6,1.4-.6,1.5-1.3.5h0Z"/>
                <path class="cls-4" d="M38.5,26l.2.2c-.7.6-1.4,1.2-2,1.8l-2,1.9c-1.3,1.3-2.5,2.6-3.7,4,.1,1.3.2,2.5.4,3.7l-1.3,1.7c-.4.6-.8,1.2-1.3,1.8-.9,1.1-1.6,2.4-2.4,3.6h-.2c.8-1.3,1.5-2.6,2.4-3.7l1.3-1.7,1.3-1.7c-.2-1.2-.3-2.5-.4-3.7,1.2-1.4,2.5-2.7,3.8-4.1l2-1.9c.7-.6,1.4-1.2,2.1-1.8h0Z"/>
                <path class="cls-4" d="M37.9,25.2c.5-.4,1.2-.4,1.6.1s.4,1.2,0,1.6-1.2.3-1.6-.1c-.4-.5-.4-1.2,0-1.6Z"/>
              </g>
              <g>
                <path class="cls-4" d="M54.2,8.1l-.3-.8c3.5-1.4,7.1-2.7,10.7-3.7,3.7-.9,7.4-1.7,11.1-2.1v.9c-3.6.4-7.3,1.2-10.9,2.1-3.6.9-7.1,2.2-10.6,3.6h0Z"/>
                <path class="cls-4" d="M12.7,49.5l-.8-.3c1.5-3.5,3.3-6.8,5.2-10.1,2-3.2,4.2-6.3,6.6-9.2l.7.6c-2.4,2.9-4.6,5.9-6.5,9.1-1.9,3.2-3.7,6.5-5.2,10h0Z"/>
                <path class="cls-4" d="M26.4,27.3c6.1-6.7,13.4-12.4,21.4-16.7v.2c-7.9,4.3-15.1,9.9-21.2,16.6,0,0-.2-.1-.2-.1Z"/>
                <path class="cls-4" d="M47.3,11c-.2-.3,0-.7.3-.9.4-.2.8,0,1,.3.2.3,0,.7-.3.9-.3.2-.8,0-.9-.3h0Z"/>
                <path class="cls-4" d="M26,27.9c-.3-.3-.3-.7,0-1,.3-.3.7-.3,1,0s.3.7,0,1c-.3.3-.7.3-1,0h0Z"/>
                <path class="cls-4" d="M23.7,29.9s-.2.5-.4,1c-.2.5-.4,1-.4,1.1,0,0-.5.6-1.2,1.4-.6.9-1.5,2-2.4,3.1-.8,1.2-1.6,2.3-2.2,3.2-.6.9-1,1.5-1,1.5l-.4-1.6c.5-.9,1-1.6,1.5-2.5.5-.8,1-1.6,1.6-2.4l1.7-2.4,1.8-2.3,1.3-.2h0Z"/>
                <path class="cls-4" d="M11.9,49.2l1.3-1.1.5,1.4s0,.1-.1.3c0,.2-.2.5-.4.8-.3.7-.6,1.6-1,2.5-.4.9-.6,1.9-.9,2.6-.2.7-.4,1.2-.4,1.2,0,0-.4-.8-.4-.8.3-.9.6-1.8.9-2.7l1-2.6c-.2-.5-.4-1-.5-1.4h0c0,0,0,0,0,0Z"/>
                <path class="cls-4" d="M72.2,2.9l.3-.2c1-.2,2-.3,3-.4l1.5-.2c.5,0,1,0,1.5-.1l1.5,1.2c-1.1,0-2.1.1-3.2.3l-3.2.4c-.5-.4-1-.7-1.5-1h0Z"/>
                <polygon class="cls-4" points="84.3 0 85.2 0 85.2 2.6 84.3 2.7 84.3 0"/>
              </g>
              <path class="cls-4" d="M29.6,30.2l-1.6,1.8-.8.9-.8.9-1.5,1.9-1.4,1.9c.9-.2,1.9-.3,2.8-.5,1.9-2.5,3.8-4.9,6-7.1-.9,0-1.8,0-2.7,0h0Z"/>
              <path class="cls-4" d="M20.8,42c-.8,1.4-1.7,2.7-2.4,4.2-.4.7-.8,1.4-1.1,2.1l-1,2.2c.9-.3,1.8-.7,2.6-1,.3-.7.7-1.4,1-2.1.4-.7.7-1.4,1.1-2.1.8-1.3,1.5-2.7,2.4-4-.9.2-1.8.4-2.6.6h0Z"/>
              <path class="cls-4" d="M14.5,55.3c-.5,1.5-1.1,3-1.5,4.6-.2.8-.5,1.5-.7,2.3l-.6,2.3c.8-.5,1.6-1,2.4-1.5.2-.7.4-1.5.6-2.2.2-.7.4-1.5.6-2.2.5-1.5.9-2.9,1.6-4.4-.8.4-1.7.7-2.4,1.1h0Z"/>
              <path class="cls-4" d="M10.3,74.4l-.2,2.4v2.4c.6-.7,1.3-1.3,1.9-1.9,0-.8.1-1.5.2-2.3,0-.8,0-1.5.2-2.3.2-1.5.3-3.1.7-4.6-.7.5-1.5,1-2.2,1.6-.2,1.6-.5,3.2-.6,4.8Z"/>
              <path class="cls-4" d="M35,138h1.5c7.6,6.4,16.5,11.3,26,14.4,1.3-.6,2.6-1.4,3.8-2.1l1,.3,1,.2,2.1.5c1.4.3,2.8.5,4.2.8-.3.3-.7.5-1,.7l-2.8-.5-2.8-.6c-1.3.8-2.6,1.5-3.9,2.2-5.3-1.5-10.4-3.6-15.2-6.3-4.8-2.7-9.3-5.8-13.5-9.4,0,0-.2-.2-.2-.2Z"/>
              <path class="cls-4" d="M62.3,151.3l-2.2-.8c.9-.4,1.8-.9,2.6-1.3s1.7-.9,2.5-1.4c.9.3,1.8.5,2.7.8l2.8.6c.2.4.5.8.8,1.2-.9-.2-1.8-.4-2.7-.6l-1.3-.3-1.3-.4c-1.2.7-2.5,1.5-3.8,2.1h0Z"/>
              <path class="cls-4" d="M61.8,149c-2.7-.9-5.3-2.1-7.9-3.3-2.6-1.3-5.1-2.7-7.5-4.3-.8.2-1.7.4-2.6.6,4.9,3.3,10.2,6,15.7,8.1.8-.3,1.5-.7,2.3-1.1h0Z"/>
              <path class="cls-4" d="M83.6,150.3l.2.2c-.9.9-1.9,1.9-2.9,2.8h0s-2.9-.2-2.9-.2l-2.9-.4v-.2s2.9.4,2.9.4l2.9.2c1-.9,2-1.9,2.9-2.8h0Z"/>
              <path class="cls-4" d="M82.4,148.9v.2c-.5.7-1.2,1.3-1.9,1.9l-2.1-.2c-.7,0-1.4-.2-2.1-.3-.7,0-1.4-.2-2.1-.3l-2.1-.4v-.2s2.1.4,2.1.4c.7.1,1.4.2,2.1.3.7,0,1.4.2,2.1.3l2.1.2c.7-.6,1.3-1.2,1.9-1.8h0Z"/>
              <path class="cls-4" d="M35.1,137.2l-.2.2c-.5-.5-1.1-.9-1.6-1.4l-1.5-1.5c-.7,0-1.3,0-2,0v-.2c.7,0,1.4,0,2.1,0l1.6,1.5c.5.5,1,1,1.6,1.5h0Z"/>
              <path class="cls-4" d="M44.5,140.9v.2c-.1,0-3-2-3-2l-2.7-2.2c-.8,0-1.6.1-2.4.2v-.2c.8,0,1.6-.1,2.4-.2l2.8,2.2,2.9,2h0Z"/>
            </g>
          </g>
          <polygon class="cls-4" points="267.1 165.9 266.9 166.1 155.7 55.7 64.8 55.7 57.4 63.2 37.6 63.2 31.5 69.3 31.2 69 37.4 62.8 57.2 62.8 64.7 55.4 155.9 55.4 267.1 165.9"/>
          <path class="cls-2" d="M42.2,59.9c-.2,0-3.1,0-3.3,0-.2.2,12.7-12.7,12.7-12.7h34.2s3.2,3.2,3.2,3.2h-26s-9.2,9.4-9.4,9.4h-11.4s0,0,0,0Z"/>
          <path class="cls-4" d="M140.9,138h-35.2c-3.7,3.6-13,12.9-13.3,13.3h-.2c0-.1.2,0,.2,0l-.3-.2c.3-.4,12.1-12.1,13.4-13.4h0s35,0,35,0v-5.2h.4v5.6Z"/>
          <g>
            <rect class="cls-4" x="129.6" y="132.9" width="9.8" height="3.3"/>
            <g>
              <rect class="cls-3" x="117.3" y="132.9" width="9.8" height="3.3"/>
              <rect class="cls-1" x="105.1" y="132.9" width="9.8" height="3.3"/>
            </g>
          </g>
        </g>
      </g>
    </g>
  </g>
</svg>