<?xml version="1.0" encoding="utf-8"?>
<!-- Generator: Adobe Illustrator 28.1.0, SVG Export Plug-In . SVG Version: 6.00 Build 0)  -->
<svg version="1.1" id="group" xmlns="http://www.w3.org/2000/svg" xmlns:xlink="http://www.w3.org/1999/xlink" x="0px" y="0px"
	 viewBox="0 0 349.64 40.5" style="enable-background:new 0 0 349.64 40.5;" xml:space="preserve">
<style type="text/css">
	.st0{fill:none;stroke:#FFFFFF;stroke-width:1.2367;stroke-miterlimit:10;}
	.st1{fill:#FFFFFF;}
	.st2{fill:none;stroke:#FFFFFF;stroke-width:0.6184;stroke-miterlimit:10;}
</style>
<g id="leftPart">
	<path class="st0" d="M2.01,20.45c0.93-0.21,55.55,0,55.55,0"/>
	<polyline class="st0" points="67.66,20.36 117.75,20.36 137.49,0.62 197.89,0.62 	"/>
	<polyline class="st0" points="117.75,20.36 137.27,39.88 183.88,39.88 	"/>
	<path class="st1" d="M64.26,20.45c0,1.11-0.9,2.01-2.01,2.01c-1.11,0-2.01-0.9-2.01-2.01s0.9-2.01,2.01-2.01
		C63.36,18.44,64.26,19.34,64.26,20.45z"/>
	<path class="st1" d="M4.02,20.45c0,1.11-0.9,2.01-2.01,2.01C0.9,22.46,0,21.56,0,20.45s0.9-2.01,2.01-2.01
		C3.12,18.44,4.02,19.34,4.02,20.45z"/>
	<polygon class="st1" points="135.61,2.96 139.61,2.96 141.71,0.86 138.01,0.86 	"/>
	<path class="st1" d="M115.5,20.36c0-1.24,1.01-2.25,2.25-2.25c1.24,0,2.25,1.01,2.25,2.25c0,1.24-1.01,2.25-2.25,2.25
		C116.5,22.61,115.5,21.6,115.5,20.36z"/>
	<polyline class="st2" points="130.63,14.95 125.2,20.38 130.71,25.89 	"/>
</g>
<g id="rightPart">
	<path class="st0" d="M347.63,20.45c-0.93-0.21-55.55,0-55.55,0"/>
	<polyline class="st0" points="281.98,20.36 231.89,20.36 212.15,0.62 151.75,0.62 	"/>
	<polyline class="st0" points="231.89,20.36 212.37,39.88 165.76,39.88 	"/>
	<path class="st1" d="M285.38,20.45c0,1.11,0.9,2.01,2.01,2.01c1.11,0,2.01-0.9,2.01-2.01s-0.9-2.01-2.01-2.01
		C286.28,18.44,285.38,19.34,285.38,20.45z"/>
	<path class="st1" d="M345.62,20.45c0,1.11,0.9,2.01,2.01,2.01c1.11,0,2.01-0.9,2.01-2.01s-0.9-2.01-2.01-2.01
		C346.52,18.44,345.62,19.34,345.62,20.45z"/>
	<polygon class="st1" points="214.03,2.96 210.03,2.96 207.94,0.86 211.63,0.86 	"/>
	<path class="st1" d="M234.14,20.36c0-1.24-1.01-2.25-2.25-2.25c-1.24,0-2.25,1.01-2.25,2.25c0,1.24,1.01,2.25,2.25,2.25
		C233.14,22.61,234.14,21.6,234.14,20.36z"/>
	<polyline class="st2" points="219.01,14.95 224.44,20.38 218.93,25.89 	"/>
</g>
</svg>
