<?xml version="1.0" encoding="utf-8"?>
<!-- Generator: Adobe Illustrator 28.1.0, SVG Export Plug-In . SVG Version: 6.00 Build 0)  -->
<svg version="1.1" id="Ńëîé_1" xmlns="http://www.w3.org/2000/svg" xmlns:xlink="http://www.w3.org/1999/xlink" x="0px" y="0px"
	 viewBox="0 0 165.15 114.07" style="enable-background:new 0 0 165.15 114.07;" xml:space="preserve">
<style type="text/css">
	.st0{opacity:0.22;}
	.st1{fill:#FFFFFF;}
	.st2{fill:none;stroke:#FFFFFF;stroke-width:1.855;stroke-miterlimit:10;}
</style>
<g>
	<g>
		<g>
			<g class="st0">
				<rect x="72.57" y="54.99" class="st1" width="12.73" height="37.6"/>
			</g>
			<rect x="72.57" y="54.99" class="st1" width="12.73" height="2.31"/>
			<g class="st0">
				<rect x="88.56" y="54.99" class="st1" width="12.73" height="59.07"/>
			</g>
			<rect x="88.56" y="54.99" class="st1" width="12.73" height="2.31"/>
			<g class="st0">
				<rect x="104.55" y="54.99" class="st1" width="12.73" height="45.37"/>
			</g>
			<rect x="104.55" y="54.99" class="st1" width="12.73" height="2.31"/>
			<g>
				<path class="st1" d="M158.62,5.6c-0.18,0-0.35,0.07-0.48,0.2l-31.46,31.46H95.62c-0.38,0-0.69,0.31-0.69,0.69v13.24
					c0,0.38,0.31,0.69,0.69,0.69c0.38,0,0.69-0.31,0.69-0.69V38.63h30.65c0.18,0,0.36-0.07,0.48-0.2L159.1,6.77
					c0.27-0.27,0.27-0.7,0-0.97C158.97,5.66,158.79,5.6,158.62,5.6z"/>
			</g>
			<g>
				<path class="st1" d="M117.09,50.5H72.77c-0.38,0-0.69,0.31-0.69,0.69c0,0.38,0.31,0.69,0.69,0.69h44.31
					c0.38,0,0.69-0.31,0.69-0.69C117.77,50.81,117.46,50.5,117.09,50.5z"/>
			</g>
			<g>
				<path class="st1" d="M163.95,1.2c-1.61-1.6-4.21-1.6-5.82,0c-1.6,1.61-1.6,4.21,0,5.82c0.05,0.05,0.11,0.11,0.16,0.16
					c1.61,1.45,4.1,1.39,5.65-0.16C165.55,5.41,165.55,2.81,163.95,1.2z M162.7,5.77c-0.86,0.86-2.23,0.91-3.15,0.15
					c-0.06-0.05-0.11-0.1-0.17-0.15c-0.92-0.92-0.92-2.4,0-3.32c0.92-0.92,2.4-0.92,3.32,0C163.62,3.37,163.62,4.85,162.7,5.77z"/>
			</g>
			<path class="st1" d="M98.72,51.34l1.82-1.82h15.84l1.25,1.25c0.21,0.21,0.06,0.56-0.23,0.56H98.89L98.72,51.34z"/>
			<path class="st1" d="M72.27,50.71l1.19-1.19h16.15l1.25,1.25c0.21,0.21,0.06,0.56-0.23,0.56l-18.1,0.01
				C72.2,51.34,72.04,50.95,72.27,50.71z"/>
		</g>
	</g>
	<polyline class="st2" points="95.54,42.88 82.86,42.88 70.19,30.21 40.19,30.21 6.77,63.63 	"/>
	<g>
		<path class="st1" d="M7.02,63.58c-1.61-1.6-4.21-1.6-5.82,0c-1.6,1.61-1.6,4.21,0,5.82c0.05,0.05,0.11,0.11,0.16,0.16
			c1.61,1.45,4.1,1.39,5.65-0.16C8.62,67.79,8.62,65.19,7.02,63.58z M5.77,68.15c-0.86,0.86-2.23,0.91-3.15,0.15
			c-0.06-0.05-0.11-0.1-0.17-0.15c-0.92-0.92-0.92-2.4,0-3.32c0.92-0.92,2.4-0.92,3.32,0C6.69,65.74,6.69,67.23,5.77,68.15z"/>
	</g>
</g>
</svg>
