<?xml version="1.0" encoding="utf-8"?>
<!-- Generator: Adobe Illustrator 28.1.0, SVG Export Plug-In . SVG Version: 6.00 Build 0)  -->
<svg version="1.1" id="Ńëîé_1" xmlns="http://www.w3.org/2000/svg" xmlns:xlink="http://www.w3.org/1999/xlink" x="0px" y="0px"
	 viewBox="0 0 54.27 145.79" style="enable-background:new 0 0 54.27 145.79;" xml:space="preserve">
<style type="text/css">
	.st0{fill:#FFFFFF;}
	.st1{fill:none;stroke:#FFFFFF;stroke-width:0.6184;stroke-miterlimit:10;}
	.st2{fill:none;stroke:#FFFFFF;stroke-width:2.4734;stroke-miterlimit:10;}
</style>
<g>
	<g>
		<circle class="st0" cx="3.51" cy="3.51" r="3.51"/>
		<path class="st0" d="M5.52,3.51c0-1.11-0.9-2.01-2.01-2.01s-2.01,0.9-2.01,2.01s0.9,2.01,2.01,2.01S5.52,4.62,5.52,3.51z"/>
		<g>
			<g>
				<path class="st0" d="M2.97,3.71c0,0.15,0.06,0.3,0.17,0.41l38.68,38.68v99.13c0,0.32,0.26,0.59,0.59,0.59
					c0.32,0,0.59-0.26,0.59-0.59V42.56c0-0.16-0.06-0.3-0.17-0.41L3.97,3.3c-0.23-0.23-0.6-0.23-0.83,0
					C3.03,3.41,2.97,3.56,2.97,3.71z"/>
			</g>
			<polygon class="st0" points="48.77,133.91 48.74,133.91 48.77,136.04 46.4,133.68 46.4,77.34 47.17,76.57 47.17,66.66 
				48.28,65.55 48.77,65.55 			"/>
		</g>
	</g>
	<polyline class="st0" points="42.53,51.9 42.53,42.56 33.29,33.32 	"/>
	<polyline class="st1" points="41.5,36.19 47.16,41.85 47.16,54.27 	"/>
	<polyline class="st1" points="24.7,19.54 31.3,19.54 53.03,41.28 53.03,137.65 48.87,141.81 45.72,141.81 45.72,145.48 
		36.65,145.48 36.65,125.69 39.51,122.83 	"/>
	<polyline class="st2" points="51.93,138.75 53.03,137.65 53.03,119.04 	"/>
</g>
</svg>
